<svg viewBox="0 0 16 20" fill="none" xmlns="http://www.w3.org/2000/svg" x="0" y="0"><path id="Icon_2" d="M4,18h8v-3c0,-1.1 -0.392,-2.042 -1.175,-2.825c-0.783,-0.783 -1.725,-1.175 -2.825,-1.175c-1.1,0 -2.042,0.392 -2.825,1.175c-0.783,0.783 -1.175,1.725 -1.175,2.825zM8,9c1.1,0 2.042,-0.392 2.825,-1.175c0.783,-0.783 1.175,-1.725 1.175,-2.825v-3h-8v3c0,1.1 0.392,2.042 1.175,2.825c0.783,0.783 1.725,1.175 2.825,1.175zM0,20v-2h2v-3c0,-1.017 0.238,-1.971 0.713,-2.863c0.475,-0.891 1.137,-1.604 1.987,-2.137c-0.85,-0.533 -1.512,-1.246 -1.987,-2.137c-0.475,-0.892 -0.713,-1.846 -0.713,-2.863v-3h-2v-2h16v2h-2v3c0,1.017 -0.237,1.971 -0.712,2.863c-0.475,0.891 -1.138,1.604 -1.988,2.137c0.85,0.533 1.513,1.246 1.988,2.137c0.475,0.892 0.712,1.846 0.712,2.863v3h2v2z" fill="currentColor" fill-opacity="0.2"/></svg>