<svg viewBox="0 0 18 17.9091" fill="none" xmlns="http://www.w3.org/2000/svg" x="0" y="0"><g id="Group_2">
<path id="Vector_3" d="M17.732,17.3445h-17.196v-17.06c0,-0.16 -0.12,-0.28 -0.268,-0.28c-0.148,0 -0.268,0.12 -0.268,0.28v17.34c0,0.16 0.12,0.28 0.268,0.28h17.464c0.148,0 0.268,-0.12 0.268,-0.28c0,-0.15 -0.12,-0.28 -0.268,-0.28z" fill="currentColor"/>
<path id="Vector_4" d="M12.155,9.3945c-2.381,4.27 -3.552,0.09 -3.929,-1.13c-0.64,-2.07 -3.642,-7.88 -7.263,-1.82v10.3h16.61c0,0 -2.024,-14.58 -5.418,-7.35z" fill="currentColor"/>
</g></svg>